<svg width="32" height="32" viewBox="0 0 32 32" fill="none" xmlns="http://www.w3.org/2000/svg">
<circle cx="16" cy="16.0001" r="16" fill="#141313" fill-opacity="0.05"/>
<path fill-rule="evenodd" clip-rule="evenodd" d="M10.4942 9.63464C9.06897 9.63464 7.91357 10.79 7.91357 12.2153V20.8174C7.91357 22.2427 9.06897 23.3981 10.4942 23.3981H22.5372C23.9625 23.3981 25.1179 22.2427 25.1179 20.8174V12.2153C25.1179 10.79 23.9625 9.63464 22.5372 9.63464H10.4942ZM9.71255 11.8557C9.84873 11.5602 10.1475 11.3551 10.4942 11.3551H22.5372C22.8839 11.3551 23.1827 11.5602 23.3189 11.8557L17.0438 16.7363C16.7332 16.9779 16.2982 16.9779 15.9876 16.7363L9.71255 11.8557ZM9.634 13.9741V18.9808L12.7416 16.3912L9.634 13.9741ZM9.70532 21.1609C9.83792 21.4651 10.1412 21.6777 10.4942 21.6777H22.5372C22.8902 21.6777 23.1935 21.4651 23.3261 21.1609L18.8998 17.4723L18.1001 18.0943C17.1682 18.8191 15.8633 18.8191 14.9314 18.0943L14.1317 17.4723L9.70532 21.1609ZM23.3974 18.9808V13.9741L20.2898 16.3912L23.3974 18.9808Z" fill="#141313"/>
</svg>
