<svg width="32" height="32" viewBox="0 0 32 32" fill="none" xmlns="http://www.w3.org/2000/svg">
<circle cx="16" cy="16.0001" r="16" fill="#141313" fill-opacity="0.05"/>
<path fill-rule="evenodd" clip-rule="evenodd" d="M10.4332 10.0035C11.9449 8.49184 14.3959 8.49184 15.9076 10.0035C17.4193 11.5153 17.4193 13.9662 15.9076 15.4779C15.3449 16.0406 14.6521 16.3939 13.926 16.5377L16.0644 18.676C16.2082 17.95 16.5614 17.2571 17.1241 16.6944C18.6358 15.1827 21.0868 15.1827 22.5985 16.6944C24.1102 18.2062 24.1102 20.6571 22.5985 22.1688C21.1896 23.5777 18.9648 23.6735 17.445 22.4562L17.4283 22.473L17.1241 22.1688L10.4332 15.4779L10.1291 15.1738L10.1458 15.1571C8.92851 13.6372 9.02432 11.4125 10.4332 10.0035ZM18.3407 20.9523C19.1805 21.7921 20.5421 21.7921 21.382 20.9523C22.2218 20.1125 22.2218 18.7508 21.382 17.911C20.5421 17.0711 19.1805 17.0711 18.3407 17.911C17.5008 18.7508 17.5008 20.1125 18.3407 20.9523ZM14.6911 14.2614C13.8512 15.1012 12.4896 15.1012 11.6498 14.2614C10.8099 13.4216 10.8099 12.0599 11.6498 11.2201C12.4896 10.3802 13.8512 10.3802 14.6911 11.2201C15.5309 12.0599 15.5309 13.4216 14.6911 14.2614Z" fill="#141313"/>
</svg>
